<svg width="24" height="25" viewBox="0 0 24 25" fill="none" xmlns="http://www.w3.org/2000/svg">
<path d="M2.32031 11.5919C2.54179 9.73474 3.30138 7.98288 4.50562 6.55187C4.63887 6.39119 4.80418 6.2601 4.99099 6.16696C5.1778 6.07383 5.38199 6.02071 5.5905 6.01101C5.79901 6.0013 6.00726 6.03522 6.20191 6.11059C6.39656 6.18597 6.57334 6.30114 6.72094 6.44875L9.315 9.09812C9.56482 9.34737 9.71792 9.67731 9.74694 10.029C9.77596 10.3807 9.67902 10.7313 9.47344 11.0181C9.31771 11.239 9.20043 11.4847 9.12656 11.7447C9.1031 11.8214 9.05565 11.8886 8.99119 11.9363C8.92673 11.9841 8.84866 12.0099 8.76844 12.01L2.69344 12.01C2.6405 12.0101 2.58814 11.999 2.53981 11.9774C2.49148 11.9558 2.44828 11.9242 2.41303 11.8847C2.37778 11.8452 2.3513 11.7987 2.33532 11.7482C2.31934 11.6977 2.31422 11.6445 2.32031 11.5919ZM12.8803 3.01562C12.6731 2.99755 12.4644 3.02277 12.2675 3.08966C12.0706 3.15655 11.8898 3.26366 11.7364 3.40419C11.5831 3.54472 11.4607 3.71559 11.377 3.90596C11.2932 4.09632 11.25 4.30202 11.25 4.50999V8.32281C11.2474 8.6766 11.3711 9.01972 11.5987 9.29053C11.8264 9.56135 12.1432 9.74209 12.4922 9.80031C13.1493 9.90872 13.7517 10.2327 14.2044 10.7212C14.6571 11.2098 14.9343 11.835 14.9924 12.4985C15.0505 13.162 14.8862 13.8259 14.5254 14.3857C14.1645 14.9455 13.6276 15.3693 12.9994 15.5903C12.9262 15.6172 12.8631 15.6658 12.8185 15.7297C12.7739 15.7936 12.75 15.8696 12.75 15.9475L12.75 22.0628C12.7496 22.1159 12.7606 22.1685 12.7821 22.217C12.8035 22.2656 12.8351 22.309 12.8746 22.3445C12.9141 22.3799 12.9607 22.4066 13.0113 22.4227C13.0619 22.4388 13.1154 22.4439 13.1681 22.4378C15.508 22.1489 17.6648 21.0247 19.2416 19.272C20.8185 17.5193 21.7092 15.256 21.75 12.8987C21.8203 7.80906 17.9241 3.4675 12.8803 3.01562ZM10.9922 15.5875C10.573 15.438 10.1923 15.197 9.87768 14.8821C9.56311 14.5672 9.32254 14.1863 9.17344 13.7669C9.14787 13.6925 9.09989 13.6279 9.0361 13.5819C8.9723 13.5359 8.89583 13.5108 8.81719 13.51L2.6925 13.51C2.63949 13.5097 2.58702 13.5206 2.53853 13.542C2.49005 13.5634 2.44666 13.5949 2.41123 13.6343C2.37579 13.6737 2.34912 13.7202 2.33296 13.7707C2.3168 13.8212 2.31153 13.8745 2.3175 13.9272C2.5801 16.0941 3.56159 18.1105 5.10507 19.654C6.64855 21.1975 8.66492 22.179 10.8319 22.4416C10.8845 22.4475 10.9379 22.4423 10.9884 22.4261C11.0388 22.4099 11.0853 22.3833 11.1248 22.3478C11.1642 22.3124 11.1956 22.269 11.2171 22.2205C11.2385 22.172 11.2494 22.1196 11.2491 22.0666L11.2491 15.9475C11.2492 15.8682 11.2245 15.7908 11.1784 15.7262C11.1324 15.6617 11.0672 15.6132 10.9922 15.5875Z" fill="#B3B3B3"/>
</svg>
