<svg width="12" height="12" viewBox="0 0 12 12" fill="none" xmlns="http://www.w3.org/2000/svg">
<path d="M4.76531 1.98469L8.51531 5.73469C8.55018 5.76951 8.57784 5.81087 8.59671 5.8564C8.61558 5.90192 8.62529 5.95072 8.62529 6C8.62529 6.04928 8.61558 6.09808 8.59671 6.1436C8.57784 6.18913 8.55018 6.23048 8.51531 6.26531L4.76531 10.0153C4.71287 10.0678 4.64602 10.1036 4.57324 10.1181C4.50046 10.1326 4.42501 10.1251 4.35645 10.0967C4.28789 10.0683 4.22931 10.0202 4.1881 9.95849C4.1469 9.89677 4.12494 9.82421 4.125 9.75L4.125 2.25C4.12494 2.17579 4.1469 2.10323 4.1881 2.04151C4.22931 1.97978 4.28789 1.93167 4.35645 1.90327C4.42501 1.87486 4.50046 1.86743 4.57324 1.88193C4.64602 1.89642 4.71287 1.93218 4.76531 1.98469Z" fill="#696868"/>
</svg>
