<svg width="18" height="16" viewBox="0 0 18 16" fill="none" xmlns="http://www.w3.org/2000/svg">
<path d="M16.7976 2.71562L16.7914 2.72266L11.5 8.37266V12.7078C11.5003 12.914 11.4496 13.117 11.3524 13.2989C11.2552 13.4807 11.1145 13.6357 10.9429 13.75L8.44295 15.4172C8.25455 15.5427 8.03561 15.6147 7.80951 15.6254C7.5834 15.6362 7.3586 15.5854 7.15912 15.4784C6.95964 15.3714 6.79296 15.2122 6.67687 15.0179C6.56078 14.8236 6.49964 14.6014 6.49998 14.375L6.49998 8.37266L1.20857 2.72266L1.20232 2.71562C1.03963 2.53657 0.932382 2.31416 0.893604 2.07536C0.854826 1.83656 0.886179 1.59163 0.98386 1.3703C1.08154 1.14897 1.24135 0.960737 1.44391 0.828443C1.64646 0.696149 1.88305 0.625477 2.12498 0.625L15.875 0.625C16.1171 0.625024 16.354 0.695368 16.5569 0.827485C16.7598 0.959603 16.92 1.14781 17.018 1.36923C17.1159 1.59065 17.1475 1.83576 17.1088 2.07478C17.0701 2.31379 16.9628 2.53643 16.8 2.71562H16.7976Z" fill="#201F24"/>
</svg>
