<svg width="18" height="19" viewBox="0 0 18 19" fill="none" xmlns="http://www.w3.org/2000/svg">
<path d="M18 8.59282L18 17.26C18 17.6578 17.842 18.0394 17.5607 18.3207C17.2794 18.602 16.8978 18.76 16.5 18.76H12.75C12.3522 18.76 11.9706 18.602 11.6893 18.3207C11.408 18.0394 11.25 17.6578 11.25 17.26L11.25 13.51C11.25 13.3111 11.171 13.1203 11.0303 12.9797C10.8897 12.839 10.6989 12.76 10.5 12.76H7.5C7.30109 12.76 7.11032 12.839 6.96967 12.9797C6.82902 13.1203 6.75 13.3111 6.75 13.51L6.75 17.26C6.75 17.6578 6.59196 18.0394 6.31066 18.3207C6.02936 18.602 5.64782 18.76 5.25 18.76H1.5C1.10218 18.76 0.720644 18.602 0.43934 18.3207C0.158035 18.0394 1.73323e-08 17.6578 1.73323e-08 17.26L1.73323e-08 8.59282C-3.15402e-05 8.38521 0.0430305 8.17987 0.126461 7.98977C0.209891 7.79967 0.331873 7.62896 0.484687 7.48844L7.98469 0.41219L7.995 0.401877C8.27113 0.150752 8.63097 0.0115967 9.00422 0.0115967C9.37747 0.0115967 9.7373 0.150752 10.0134 0.401877C10.0166 0.405546 10.0201 0.408991 10.0237 0.41219L17.5237 7.48844C17.675 7.6297 17.7954 7.80074 17.8774 7.99081C17.9594 8.18087 18.0011 8.38584 18 8.59282Z" fill="#B3B3B3"/>
</svg>
