<svg width="20" height="20" viewBox="0 0 20 20" fill="none" xmlns="http://www.w3.org/2000/svg">
<path d="M14 5.26002L14 14.26C14 14.4589 13.921 14.6497 13.7803 14.7904C13.6397 14.931 13.4489 15.01 13.25 15.01H11L11 18.76C11.0001 18.9084 10.9562 19.0536 10.8738 19.177C10.7914 19.3005 10.6742 19.3967 10.5371 19.4535C10.4 19.5103 10.2491 19.5252 10.1035 19.4962C9.95796 19.4672 9.82427 19.3957 9.71938 19.2906L0.719378 10.2906C0.649645 10.221 0.594326 10.1383 0.556583 10.0472C0.518839 9.95618 0.499413 9.85858 0.499413 9.76002C0.499413 9.66146 0.518839 9.56387 0.556583 9.47282C0.594326 9.38177 0.649645 9.29905 0.719378 9.2294L9.71938 0.229396C9.82427 0.124387 9.95796 0.0528614 10.1035 0.0238736C10.2491 -0.00511417 10.4 0.0097393 10.5371 0.0665537C10.6742 0.123368 10.7914 0.219589 10.8738 0.343034C10.9562 0.466479 11.0001 0.611599 11 0.760021V4.51002H13.25C13.4489 4.51002 13.6397 4.58904 13.7803 4.72969C13.921 4.87034 14 5.06111 14 5.26002ZM16.25 4.51002C16.0511 4.51002 15.8603 4.58904 15.7197 4.72969C15.579 4.87034 15.5 5.06111 15.5 5.26002L15.5 14.26C15.5 14.4589 15.579 14.6497 15.7197 14.7904C15.8603 14.931 16.0511 15.01 16.25 15.01C16.4489 15.01 16.6397 14.931 16.7803 14.7904C16.921 14.6497 17 14.4589 17 14.26L17 5.26002C17 5.06111 16.921 4.87034 16.7803 4.72969C16.6397 4.58904 16.4489 4.51002 16.25 4.51002ZM19.25 4.51002C19.0511 4.51002 18.8603 4.58904 18.7197 4.72969C18.579 4.87034 18.5 5.06111 18.5 5.26002L18.5 14.26C18.5 14.4589 18.579 14.6497 18.7197 14.7904C18.8603 14.931 19.0511 15.01 19.25 15.01C19.4489 15.01 19.6397 14.931 19.7803 14.7904C19.921 14.6497 20 14.4589 20 14.26L20 5.26002C20 5.06111 19.921 4.87034 19.7803 4.72969C19.6397 4.58904 19.4489 4.51002 19.25 4.51002Z" fill="#B3B3B3"/>
</svg>
