<svg width="18" height="22" viewBox="0 0 18 22" fill="none" xmlns="http://www.w3.org/2000/svg">
<path d="M14.25 3.33595V1.76001C14.25 1.36219 14.092 0.980654 13.8107 0.69935C13.5294 0.418045 13.1478 0.26001 12.75 0.26001L5.25 0.26001C4.85218 0.26001 4.47064 0.418045 4.18934 0.69935C3.90804 0.980654 3.75 1.36219 3.75 1.76001V3.33595C2.90354 3.50963 2.14289 3.96995 1.59637 4.63927C1.04985 5.30858 0.75092 6.14591 0.75 7.01001L0.75 17.51C0.75 18.5046 1.14509 19.4584 1.84835 20.1617C2.55161 20.8649 3.50544 21.26 4.5 21.26L13.5 21.26C14.4946 21.26 15.4484 20.8649 16.1517 20.1617C16.8549 19.4584 17.25 18.5046 17.25 17.51L17.25 7.01001C17.2491 6.14591 16.9501 5.30858 16.4036 4.63927C15.8571 3.96995 15.0965 3.50963 14.25 3.33595ZM8.25 1.76001L9.75 1.76001V3.26001H8.25V1.76001ZM5.25 1.76001L6.75 1.76001L6.75 3.26001H5.25L5.25 1.76001ZM9.75 16.01V16.76C9.75 16.9589 9.67098 17.1497 9.53033 17.2903C9.38968 17.431 9.19891 17.51 9 17.51C8.80109 17.51 8.61032 17.431 8.46967 17.2903C8.32902 17.1497 8.25 16.9589 8.25 16.76V16.01H7.5C7.30109 16.01 7.11032 15.931 6.96967 15.7903C6.82902 15.6497 6.75 15.4589 6.75 15.26C6.75 15.0611 6.82902 14.8703 6.96967 14.7297C7.11032 14.589 7.30109 14.51 7.5 14.51H9.75C9.94891 14.51 10.1397 14.431 10.2803 14.2903C10.421 14.1497 10.5 13.9589 10.5 13.76C10.5 13.5611 10.421 13.3703 10.2803 13.2297C10.1397 13.089 9.94891 13.01 9.75 13.01H8.25C7.65326 13.01 7.08097 12.773 6.65901 12.351C6.23705 11.929 6 11.3567 6 10.76C6 10.1633 6.23705 9.59098 6.65901 9.16902C7.08097 8.74706 7.65326 8.51001 8.25 8.51001V7.76001C8.25 7.5611 8.32902 7.37033 8.46967 7.22968C8.61032 7.08903 8.80109 7.01001 9 7.01001C9.19891 7.01001 9.38968 7.08903 9.53033 7.22968C9.67098 7.37033 9.75 7.5611 9.75 7.76001V8.51001H10.5C10.6989 8.51001 10.8897 8.58903 11.0303 8.72968C11.171 8.87033 11.25 9.0611 11.25 9.26001C11.25 9.45892 11.171 9.64969 11.0303 9.79034C10.8897 9.93099 10.6989 10.01 10.5 10.01H8.25C8.05109 10.01 7.86032 10.089 7.71967 10.2297C7.57902 10.3703 7.5 10.5611 7.5 10.76C7.5 10.9589 7.57902 11.1497 7.71967 11.2903C7.86032 11.431 8.05109 11.51 8.25 11.51H9.75C10.3467 11.51 10.919 11.7471 11.341 12.169C11.7629 12.591 12 13.1633 12 13.76C12 14.3567 11.7629 14.929 11.341 15.351C10.919 15.773 10.3467 16.01 9.75 16.01ZM12.75 3.26001H11.25V1.76001L12.75 1.76001V3.26001Z" fill="#B3B3B3"/>
</svg>
