<svg width="16" height="15" viewBox="0 0 16 15" fill="none" xmlns="http://www.w3.org/2000/svg">
<path d="M14.25 0L1.75 0C1.41848 0 1.10054 0.131696 0.866116 0.366116C0.631696 0.600537 0.5 0.918479 0.5 1.25L0.5 13.75C0.5 14.0815 0.631696 14.3995 0.866116 14.6339C1.10054 14.8683 1.41848 15 1.75 15L14.25 15C14.5815 15 14.8995 14.8683 15.1339 14.6339C15.3683 14.3995 15.5 14.0815 15.5 13.75L15.5 1.25C15.5 0.918479 15.3683 0.600537 15.1339 0.366116C14.8995 0.131696 14.5815 0 14.25 0ZM3.625 3.125L11.125 3.125C11.2908 3.125 11.4497 3.19085 11.5669 3.30806C11.6842 3.42527 11.75 3.58424 11.75 3.75C11.75 3.91576 11.6842 4.07473 11.5669 4.19194C11.4497 4.30915 11.2908 4.375 11.125 4.375L3.625 4.375C3.45924 4.375 3.30027 4.30915 3.18306 4.19194C3.06585 4.07473 3 3.91576 3 3.75C3 3.58424 3.06585 3.42527 3.18306 3.30806C3.30027 3.19085 3.45924 3.125 3.625 3.125ZM6.75 11.875L3.625 11.875C3.45924 11.875 3.30027 11.8092 3.18306 11.6919C3.06585 11.5747 3 11.4158 3 11.25C3 11.0842 3.06585 10.9253 3.18306 10.8081C3.30027 10.6908 3.45924 10.625 3.625 10.625L6.75 10.625C6.91576 10.625 7.07473 10.6908 7.19194 10.8081C7.30915 10.9253 7.375 11.0842 7.375 11.25C7.375 11.4158 7.30915 11.5747 7.19194 11.6919C7.07473 11.8092 6.91576 11.875 6.75 11.875ZM7.375 8.125L3.625 8.125C3.45924 8.125 3.30027 8.05915 3.18306 7.94194C3.06585 7.82473 3 7.66576 3 7.5C3 7.33424 3.06585 7.17527 3.18306 7.05806C3.30027 6.94085 3.45924 6.875 3.625 6.875H7.375C7.54076 6.875 7.69973 6.94085 7.81694 7.05806C7.93415 7.17527 8 7.33424 8 7.5C8 7.66576 7.93415 7.82473 7.81694 7.94194C7.69973 8.05915 7.54076 8.125 7.375 8.125ZM13.4422 10.4422L11.5672 12.3172C11.5091 12.3753 11.4402 12.4214 11.3643 12.4529C11.2885 12.4843 11.2071 12.5005 11.125 12.5005C11.0429 12.5005 10.9615 12.4843 10.8857 12.4529C10.8098 12.4214 10.7409 12.3753 10.6828 12.3172L8.80781 10.4422C8.69054 10.3249 8.62465 10.1659 8.62465 10C8.62465 9.83415 8.69054 9.67509 8.80781 9.55781C8.92509 9.44054 9.08415 9.37465 9.25 9.37465C9.41585 9.37465 9.57491 9.44054 9.69219 9.55781L10.5 10.3664V6.875C10.5 6.70924 10.5658 6.55027 10.6831 6.43306C10.8003 6.31585 10.9592 6.25 11.125 6.25C11.2908 6.25 11.4497 6.31585 11.5669 6.43306C11.6842 6.55027 11.75 6.70924 11.75 6.875V10.3664L12.5578 9.55781C12.6751 9.44054 12.8341 9.37465 13 9.37465C13.1659 9.37465 13.3249 9.44054 13.4422 9.55781C13.5595 9.67509 13.6253 9.83415 13.6253 10C13.6253 10.1659 13.5595 10.3249 13.4422 10.4422Z" fill="#201F24"/>
</svg>
