<svg width="18" height="18" viewBox="0 0 18 18" fill="none" xmlns="http://www.w3.org/2000/svg">
<path d="M8.19282 12.9731C8.24967 13.1102 8.2646 13.261 8.23573 13.4065C8.20686 13.552 8.13548 13.6857 8.03063 13.7906L5.03063 16.7906C4.96097 16.8604 4.87826 16.9157 4.78721 16.9534C4.69616 16.9912 4.59857 17.0106 4.5 17.0106C4.40144 17.0106 4.30385 16.9912 4.2128 16.9534C4.12175 16.9157 4.03903 16.8604 3.96938 16.7906L0.969378 13.7906C0.86437 13.6858 0.792844 13.5521 0.763856 13.4065C0.734868 13.2609 0.749722 13.11 0.806536 12.9729C0.863351 12.8358 0.959571 12.7186 1.08302 12.6362C1.20646 12.5538 1.35158 12.5099 1.5 12.51H3.75L3.75 1.26002C3.75 1.06111 3.82902 0.870342 3.96967 0.72969C4.11033 0.589038 4.30109 0.51002 4.5 0.51002C4.69892 0.51002 4.88968 0.589038 5.03033 0.72969C5.17099 0.870342 5.25 1.06111 5.25 1.26002L5.25 12.51L7.5 12.51C7.64834 12.51 7.79333 12.5541 7.91665 12.6365C8.03997 12.7189 8.13608 12.8361 8.19282 12.9731ZM17.0306 3.72939L14.0306 0.729395C13.961 0.659663 13.8783 0.604344 13.7872 0.5666C13.6962 0.528857 13.5986 0.50943 13.5 0.50943C13.4014 0.50943 13.3038 0.528857 13.2128 0.5666C13.1218 0.604344 13.039 0.659663 12.9694 0.729395L9.96938 3.72939C9.86437 3.83429 9.79284 3.96798 9.76386 4.11354C9.73487 4.2591 9.74972 4.41 9.80654 4.54711C9.86335 4.68423 9.95957 4.80141 10.083 4.88381C10.2065 4.96621 10.3516 5.01014 10.5 5.01002H12.75L12.75 16.26C12.75 16.4589 12.829 16.6497 12.9697 16.7903C13.1103 16.931 13.3011 17.01 13.5 17.01C13.6989 17.01 13.8897 16.931 14.0303 16.7903C14.171 16.6497 14.25 16.4589 14.25 16.26L14.25 5.01002L16.5 5.01002C16.6484 5.01014 16.7935 4.96621 16.917 4.88381C17.0404 4.80141 17.1367 4.68423 17.1935 4.54711C17.2503 4.41 17.2651 4.2591 17.2362 4.11354C17.2072 3.96798 17.1356 3.83429 17.0306 3.72939Z" fill="#277C78"/>
</svg>
